PathFileType	4	(x/y/z)	A01_PREF_T0015.trc
DataRate	CameraRate	NumFrames	NumMarkers	Units	OrigDataRate	OrigDataStartFrame	OrigNumFrames
240	240	10	48	mm	240	232	309
Frame#	Time	TOP_HEAD			R_AC			L_AC			R_ASIS			L_ASIS			R_PSIS			L_PSIS			SACRAL			L_IC			R_IC			L_GT			R_GT			R_LAT_KNEE			R_MED_KNEE			L_MED_KNEE			L_LAT_KNEE			R_TOE			L_TOE			R_1ST_MET			L_1ST_MET			L_5TH_MET			R_5TH_MET			R_LAT_ANK			R_MED_ANK			L_MED_ANK			L_LAT_ANK			L_HEEL_SUP			R_HEEL_SUP			L_HEEL_LAT			R_HEEL_LAT			L_HEEL_MED			R_HEEL_MED			R_LL_PROX_POST			R_LL_PROX_ANT			R_LL_DIST_ANT			R_LL_DIST_POST			R_THIGH_PROX_POST			R_THIGH_PROX_ANT			R_THIGH_DIST_ANT			R_THIGH_DIST_POST			L_PROS_PROX_ANT			L_PROS_PROX_POST			L_PROS_DIST_POST			L_PROS_DIST_ANT			L_THIGH_PROX_ANT			L_THIGH_PROX_POST			L_THIGH_DIST_POST			L_THIGH_DIST_ANT			
		X1	Y1	Z1	X2	Y2	Z2	X3	Y3	Z3	X4	Y4	Z4	X5	Y5	Z5	X6	Y6	Z6	X7	Y7	Z7	X8	Y8	Z8	X9	Y9	Z9	X10	Y10	Z10	X11	Y11	Z11	X12	Y12	Z12	X13	Y13	Z13	X14	Y14	Z14	X15	Y15	Z15	X16	Y16	Z16	X17	Y17	Z17	X18	Y18	Z18	X19	Y19	Z19	X20	Y20	Z20	X21	Y21	Z21	X22	Y22	Z22	X23	Y23	Z23	X24	Y24	Z24	X25	Y25	Z25	X26	Y26	Z26	X27	Y27	Z27	X28	Y28	Z28	X29	Y29	Z29	X30	Y30	Z30	X31	Y31	Z31	X32	Y32	Z32	X33	Y33	Z33	X34	Y34	Z34	X35	Y35	Z35	X36	Y36	Z36	X37	Y37	Z37	X38	Y38	Z38	X39	Y39	Z39	X40	Y40	Z40	X41	Y41	Z41	X42	Y42	Z42	X43	Y43	Z43	X44	Y44	Z44	X45	Y45	Z45	X46	Y46	Z46	X47	Y47	Z47	X48	Y48	Z48	

232	0.96563	609.19	1797.3	372.81	432.23	1547.7	592.71	385.62	1570.5	134.64	431.46	1090.3	556.1	413.75	1043.1	203.09	205.87	1095.1	444.79	209.32	1094.6	312.68	192.62	1064.7	376.85	380.46	1163.7	165.95	401.32	1187.2	569.81	356.32	963.07	161.76	374.02	978.06	596.26	416.83	569.93	523.52	439.75	572.94	392.49	508.71	554.37	339.44	467.73	593.92	191.8	587.27	69.913	431.64	290.37	85.401	214.82	501.79	56.253	385.68	225.5	108.46	288.39	173.52	140.96	173.84	475.53	46.678	521.24	360.63	109.54	493.42	366.15	114.39	389.29	185.94	255.42	301.28	144.98	274.85	244.01	60.348	287.29	307.57	260.08	75.219	439.23	40.622	265.94	275.42	267.71	51.873	473.99	58.944	249.5	334.51	270.13	48.3	413.2	318.47	397.81	529.73	390.35	385.63	541.73	389.18	311.59	522.88	330.27	316.41	518.56	348.1	832.82	572.72	414.05	860.07	581.29	429.17	770.03	569.2	365.82	745.76	558.46	451.88	500.49	195.42	408.43	535.79	197.29	365.26	490.27	209.24	411.54	461.73	205.26	461.38	836.68	189.17	392.75	827.01	170.71	421.18	755.72	176.57	484.6	766.01	191.77
233	0.96981	614.89	1798.1	371.82	437.8	1549.2	592.46	390.63	1571.4	134.43	436.66	1091	556.2	418.99	1044.6	203.12	211.08	1096.3	444.76	214.6	1095.7	312.69	197.87	1065.9	376.77	385.57	1164.9	165.94	406.68	1188.6	569.85	362.01	964.57	161.64	378.71	978.76	596.16	418.05	570.34	523.44	441	573.19	392.39	516.67	557.49	339.85	476	595.67	191.73	587.43	69.73	431.65	308.12	83.967	215.47	501.88	56.207	385.68	242.27	106.14	288.42	190.56	137.11	173.31	475.61	46.693	521.22	361	109.95	493.34	366.46	114.71	389.25	199.85	252.33	300.4	158.93	270.76	242.72	73.57	281.87	305.47	260.33	75.897	439.19	54.571	259.98	273.25	267.85	52.562	473.99	72.771	244.13	332.59	270.32	48.876	413.19	319.26	398.44	529.58	391.08	386.1	541.64	389.74	312.08	522.81	330.86	317	518.45	351.46	833.86	572.52	417.82	860.57	581.18	432.14	770.39	569.11	368.49	746.66	558.29	461.88	501.98	195.58	417.78	536.45	197	375.4	490.15	208.84	422.23	462.5	205.29	468.1	838.82	189.3	399.61	828.72	170.58	428.48	757.63	176.51	491.79	768.34	191.91
234	0.97399	620.57	1798.9	370.81	443.34	1550.7	592.19	395.64	1572.3	134.21	441.81	1091.6	556.31	424.23	1046.2	203.17	216.27	1097.4	444.7	219.89	1096.8	312.65	203.12	1067	376.65	390.73	1166.2	165.92	412.02	1189.9	569.89	367.7	966.02	161.51	383.36	979.45	596.06	419.26	570.77	523.37	442.27	573.45	392.3	524.49	560.54	340.29	484.11	597.37	191.7	587.59	69.551	431.67	326.03	82.582	216.09	501.98	56.161	385.67	259.21	103.8	288.43	207.79	133.23	172.76	475.69	46.71	521.19	361.38	110.38	493.27	366.79	115.05	389.21	213.88	249.13	299.53	173.01	266.57	241.45	86.946	276.26	303.38	260.57	76.616	439.16	68.694	253.84	271.09	267.98	53.297	473.99	86.769	238.58	330.67	270.48	49.496	413.19	320.04	399.09	529.43	391.81	386.59	541.56	390.29	312.58	522.74	331.44	317.61	518.33	354.81	834.9	572.31	421.57	861.08	581.06	435.07	770.77	569.02	371.16	747.56	558.1	471.77	503.46	195.77	427.02	537.05	196.74	385.48	489.96	208.47	432.85	463.25	205.34	474.77	840.91	189.43	406.42	830.39	170.46	435.7	759.5	176.45	498.91	770.62	192.07
235	0.97817	626.23	1799.7	369.8	448.85	1552.2	591.92	400.64	1573.2	133.99	446.93	1092.2	556.42	429.49	1047.6	203.23	221.44	1098.5	444.58	225.17	1097.9	312.57	208.35	1068	376.49	395.91	1167.3	165.89	417.34	1191.1	569.93	373.42	967.42	161.39	387.97	980.13	595.95	420.45	571.22	523.29	443.55	573.73	392.21	532.17	563.5	340.74	492.06	599.01	191.71	587.75	69.374	431.69	344.07	81.259	216.67	502.08	56.116	385.67	276.31	101.44	288.41	225.19	129.36	172.21	475.78	46.729	521.16	361.77	110.83	493.2	367.12	115.41	389.17	228.03	245.83	298.66	187.22	262.27	240.19	100.48	270.47	301.32	260.81	77.376	439.14	82.994	247.53	268.97	268.09	54.076	474.01	100.94	232.85	328.77	270.6	50.161	413.19	320.82	399.76	529.28	392.54	387.11	541.47	390.84	313.11	522.67	332.04	318.25	518.22	358.15	835.94	572.09	425.3	861.58	580.94	437.99	771.16	568.92	373.82	748.47	557.92	481.54	504.9	195.99	436.15	537.58	196.51	395.49	489.7	208.12	443.39	463.96	205.41	481.39	842.93	189.56	413.18	832.01	170.35	442.85	761.31	176.41	505.96	772.81	192.24
236	0.98235	631.88	1800.5	368.78	454.34	1553.6	591.65	405.63	1574	133.76	452.01	1092.8	556.55	434.76	1049.1	203.3	226.59	1099.6	444.42	230.45	1098.9	312.44	213.58	1069.1	376.28	401.13	1168.5	165.85	422.62	1192.4	569.97	379.15	968.76	161.26	392.55	980.8	595.83	421.64	571.69	523.23	444.85	574.03	392.14	539.7	566.38	341.21	499.85	600.59	191.76	587.91	69.2	431.7	362.25	80.013	217.2	502.18	56.072	385.67	293.57	99.074	288.35	242.75	125.51	171.63	475.87	46.749	521.14	362.16	111.31	493.13	367.47	115.8	389.14	242.28	242.43	297.79	201.55	257.89	238.94	114.18	264.51	299.29	261.04	78.178	439.13	97.473	241.08	266.88	268.19	54.901	474.03	115.29	226.97	326.89	270.69	50.872	413.19	321.6	400.45	529.12	393.27	387.65	541.39	391.39	313.67	522.61	332.65	318.9	518.1	361.49	836.99	571.87	429	862.09	580.82	440.88	771.57	568.83	376.48	749.39	557.73	491.2	506.32	196.22	445.17	538.06	196.32	405.43	489.39	207.8	453.86	464.63	205.49	487.98	844.89	189.69	419.89	833.58	170.25	449.93	763.07	176.38	512.93	774.93	192.43
237	0.98653	637.5	1801.2	367.75	459.8	1554.9	591.36	410.61	1574.8	133.52	457.05	1093.4	556.68	440.04	1050.4	203.37	231.72	1100.6	444.21	235.73	1099.9	312.27	218.8	1070.1	376.03	406.39	1169.6	165.81	427.87	1193.6	569.99	384.89	970.05	161.13	397.09	981.47	595.71	422.83	572.18	523.17	446.16	574.35	392.06	547.09	569.15	341.7	507.49	602.11	191.85	588.07	69.03	431.72	380.55	78.856	217.67	502.29	56.03	385.66	310.98	96.718	288.25	260.47	121.7	171.04	475.97	46.771	521.11	362.57	111.8	493.06	367.83	116.2	389.12	256.66	238.96	296.92	216.01	253.43	237.71	128.06	258.39	297.29	261.28	79.022	439.13	112.13	234.48	264.84	268.28	55.768	474.07	129.83	220.93	325.03	270.75	51.63	413.19	322.39	401.16	528.97	394.01	388.21	541.31	391.96	314.24	522.55	333.27	319.58	517.99	364.83	838.03	571.63	432.68	862.6	580.7	443.75	771.99	568.73	379.14	750.31	557.53	500.74	507.72	196.48	454.08	538.47	196.17	415.3	489.01	207.5	464.23	465.28	205.6	494.53	846.77	189.82	426.54	835.1	170.15	456.93	764.77	176.37	519.83	776.97	192.63
238	0.99071	643.11	1802	366.72	465.24	1556.3	591.07	415.58	1575.5	133.28	462.06	1094	556.81	445.35	1051.7	203.45	236.84	1101.6	443.96	241.01	1100.8	312.06	224.01	1071	375.74	411.68	1170.6	165.76	433.07	1194.8	570.01	390.65	971.28	160.99	401.59	982.13	595.58	424.03	572.68	523.11	447.49	574.69	391.99	554.33	571.81	342.21	514.96	603.55	191.97	588.23	68.863	431.75	398.96	77.803	218.09	502.41	55.988	385.66	328.54	94.381	288.11	278.34	117.94	170.43	476.07	46.795	521.08	362.98	112.31	492.99	368.2	116.63	389.1	271.14	235.41	296.05	230.59	248.92	236.5	142.1	252.13	295.34	261.52	79.907	439.14	126.98	227.77	262.85	268.37	56.677	474.12	144.55	214.75	323.21	270.79	52.434	413.2	323.18	401.89	528.82	394.76	388.79	541.24	392.53	314.83	522.51	333.9	320.27	517.88	368.17	839.08	571.38	436.34	863.11	580.58	446.6	772.42	568.64	381.8	751.24	557.34	510.15	509.08	196.75	462.87	538.82	196.04	425.09	488.56	207.22	474.52	465.89	205.71	501.04	848.59	189.95	433.14	836.55	170.05	463.86	766.4	176.36	526.65	778.92	192.86
239	0.99489	648.7	1802.7	365.68	470.64	1557.5	590.78	420.53	1576.2	133.03	467.03	1094.6	556.94	450.68	1053	203.54	241.94	1102.5	443.65	246.3	1101.7	311.79	229.21	1072	375.4	416.99	1171.6	165.7	438.24	1195.9	570.02	396.42	972.46	160.85	406.06	982.78	595.45	425.24	573.21	523.06	448.83	575.05	391.93	561.43	574.35	342.73	522.27	604.92	192.14	588.39	68.7	431.77	417.47	76.865	218.44	502.53	55.949	385.66	346.25	92.078	287.93	296.35	114.24	169.81	476.18	46.819	521.05	363.4	112.84	492.92	368.58	117.08	389.08	285.73	231.81	295.18	245.3	244.36	235.31	156.32	245.74	293.43	261.76	80.832	439.16	142	220.95	260.91	268.45	57.625	474.18	159.46	208.46	321.41	270.82	53.284	413.2	323.99	402.64	528.66	395.52	389.39	541.17	393.12	315.45	522.46	334.56	320.98	517.78	371.52	840.12	571.13	439.96	863.62	580.46	449.43	772.86	568.55	384.47	752.17	557.14	519.43	510.41	197.04	471.55	539.1	195.95	434.81	488.06	206.98	484.72	466.46	205.84	507.51	850.33	190.08	439.69	837.95	169.96	470.72	767.96	176.37	533.4	780.78	193.11
240	0.99907	654.28	1803.3	364.63	476.02	1558.8	590.49	425.48	1576.9	132.78	471.97	1095.2	557.07	456.03	1054.1	203.62	247.02	1103.5	443.3	251.59	1102.6	311.48	234.41	1072.9	375.01	422.34	1172.6	165.64	443.36	1197	570.01	402.19	973.57	160.71	410.48	983.43	595.3	426.47	573.76	523.02	450.18	575.43	391.87	568.38	576.78	343.26	529.42	606.21	192.34	588.55	68.542	431.8	436.08	76.055	218.73	502.65	55.911	385.66	364.08	89.821	287.7	314.49	110.63	169.16	476.3	46.843	521.02	363.83	113.39	492.85	368.98	117.55	389.07	300.43	228.16	294.31	260.12	239.76	234.15	170.72	239.24	291.57	262.01	81.795	439.18	157.21	214.03	259.04	268.53	58.609	474.24	174.56	202.05	319.65	270.83	54.179	413.21	324.81	403.41	528.52	396.29	390.01	541.11	393.72	316.08	522.43	335.23	321.71	517.68	374.87	841.17	570.88	443.56	864.14	580.34	452.26	773.31	568.46	387.15	753.11	556.94	528.59	511.7	197.34	480.11	539.32	195.9	444.46	487.49	206.75	494.82	467	205.98	513.94	851.99	190.22	446.19	839.27	169.86	477.51	769.45	176.4	540.07	782.55	193.37
241	1.0032	659.85	1804	363.58	481.36	1560	590.18	430.42	1577.6	132.52	476.88	1095.7	557.2	461.4	1055.2	203.7	252.09	1104.3	442.91	256.88	1103.4	311.13	239.6	1073.7	374.59	427.72	1173.5	165.57	448.45	1198	569.98	407.97	974.62	160.56	414.88	984.07	595.16	427.72	574.32	522.98	451.56	575.83	391.81	575.19	579.07	343.8	536.42	607.41	192.59	588.71	68.388	431.82	454.76	75.386	218.95	502.78	55.875	385.66	382.05	87.624	287.42	332.76	107.12	168.5	476.42	46.868	520.99	364.26	113.96	492.79	369.39	118.04	389.07	315.22	224.47	293.44	275.06	235.15	233.01	185.3	232.63	289.76	262.26	82.794	439.21	172.6	207.04	257.22	268.63	59.625	474.3	189.85	195.55	317.93	270.84	55.116	413.22	325.65	404.2	528.37	397.09	390.64	541.06	394.34	316.73	522.41	335.92	322.45	517.59	378.22	842.21	570.61	447.14	864.66	580.22	455.08	773.77	568.37	389.84	754.05	556.73	537.62	512.96	197.66	488.56	539.46	195.87	454.03	486.87	206.55	504.83	467.51	206.13	520.33	853.57	190.36	452.63	840.53	169.77	484.23	770.86	176.44	546.66	784.22	193.66
